<?xml version="1.0" encoding="utf-8"?>
<!-- Generator: Adobe Illustrator 22.0.1, SVG Export Plug-In . SVG Version: 6.00 Build 0)  -->
<svg version="1.1" id="Layer_1" xmlns="http://www.w3.org/2000/svg" xmlns:xlink="http://www.w3.org/1999/xlink" x="0px" y="0px"
	 width="13.9160633px" height="3.5833333px" viewBox="0 0 13.9160633 3.5833333"
	 style="enable-background:new 0 0 13.9160633 3.5833333;" xml:space="preserve">
<style type="text/css">
	.st0{opacity:0.5;enable-background:new    ;}
</style>
<title>Beta</title>
<g class="st0">
	<path d="M2.0464106,0.375651c0.0986328,0,0.1972656,0.0107422,0.2958984,0.0322266s0.1875,0.0566406,0.2666016,0.1054688
		c0.078125,0.0498047,0.1425781,0.1132812,0.1914062,0.1923828c0.0498047,0.0791016,0.0742188,0.1757812,0.0742188,0.2900391
		c0,0.1923828-0.0556641,0.3496093-0.1679688,0.4716796C2.5942621,1.5904948,2.4487543,1.6744791,2.2700434,1.719401v0.0078125
		c0.1445312,0.0244141,0.2646484,0.0888672,0.3623047,0.1943359c0.0976562,0.1054689,0.1464844,0.2421876,0.1464844,0.4101564
		c0,0.1435547-0.0302734,0.2705078-0.0908203,0.3798828c-0.0595703,0.109375-0.1425781,0.2011719-0.25,0.2744141
		c-0.1064453,0.0732422-0.234375,0.1279297-0.3837891,0.1660156C1.904809,3.1891277,1.7426996,3.2076824,1.5669184,3.2076824
		H0.4380121l0.5-2.8320312H2.0464106z M1.2827387,1.9957682L1.1665277,2.6715496h0.3876953
		c0.0751953,0,0.1455078-0.0068359,0.2119141-0.0195312c0.0673828-0.0136719,0.1259766-0.0351562,0.1787109-0.0644531
		C1.9966059,2.5582683,2.0376215,2.5182292,2.0688715,2.467448c0.0302734-0.0507812,0.0458984-0.1113281,0.0458984-0.1835938
		c0-0.0908203-0.0351562-0.1611328-0.1044922-0.2119141s-0.1679688-0.076172-0.2958984-0.076172H1.2827387z M1.4741449,0.9117839
		L1.3706293,1.5152994h0.4082031c0.0478516,0,0.0976562-0.0048828,0.1494141-0.015625s0.0996094-0.0292969,0.1425781-0.0556641
		c0.0419922-0.0263672,0.078125-0.0625,0.1054688-0.1074219c0.0283203-0.0449219,0.0419922-0.1005859,0.0419922-0.1669922
		c0-0.0927734-0.0361328-0.1582031-0.1074219-0.1982421C2.0385981,0.9313151,1.9477777,0.9117839,1.8384027,0.9117839H1.4741449z"/>
	<path d="M4.2544184,3.2076824l0.5-2.8320312h1.8115234L6.4663324,0.9440104H5.2905512L5.1948481,1.4918619h1.1191406
		L6.2182856,2.0279949H5.0981684L4.9946527,2.6354167h1.2880859L6.1821527,3.2076824H4.2544184z"/>
	<path d="M9.3061762,0.9479167L8.9057856,3.2076824H8.2417231l0.3964844-2.2597656H7.8462152L7.9497309,0.375651h2.2324219
		l-0.0996094,0.5722656H9.3061762z"/>
	<path d="M12.7788324,3.2076824l-0.0966797-0.5644531h-1.0917969l-0.3398438,0.5644531h-0.7597656l1.8037109-2.8320312h0.6484375
		l0.5351562,2.8320312H12.7788324z M12.4663324,1.1041666L11.8745356,2.108073h0.7402344L12.4663324,1.1041666z"/>
</g>
</svg>
