<?xml version="1.0" encoding="utf-8"?>
<!-- Generator: Adobe Illustrator 22.0.1, SVG Export Plug-In . SVG Version: 6.00 Build 0)  -->
<svg version="1.1" id="Layer_1" xmlns="http://www.w3.org/2000/svg" xmlns:xlink="http://www.w3.org/1999/xlink" x="0px" y="0px"
	 width="52.8499985px" height="31.3299999px" viewBox="0 0 52.8499985 31.3299999"
	 style="enable-background:new 0 0 52.8499985 31.3299999;" xml:space="preserve">
<style type="text/css">
	.st0{enable-background:new    ;}
</style>
<title>Untitled-3</title>
<g class="st0">
	<path d="M0.2158203,18.7197266l1.5-8.4960938h2.0043945l-1.5,8.4960938H0.2158203z"/>
	<path d="M13.0078125,18.7197266l1.1162109-6.0839844h-0.0483398l-3.2998047,6.0839844H9.3720703l-1.128418-6.0839844H8.1958008
		l-1.0200195,6.0839844H5.3037109l1.5-8.4960938h2.7963867l0.9838867,5.5078125h0.0478516L13.5,10.2236328h2.9638672l-1.5,8.4960938
		H13.0078125z"/>
</g>
<g class="st0">
	<path d="M22.3720703,10.2236328c0.9995117,0,1.765625,0.2080078,2.2978516,0.6240234
		c0.5317383,0.4160156,0.7978516,0.9960938,0.7978516,1.7402344c0,0.5039062-0.0878906,0.9404297-0.2636719,1.3076172
		c-0.1762695,0.3681641-0.4282227,0.6699219-0.7563477,0.90625s-0.722168,0.4101562-1.1821289,0.5214844
		c-0.4599609,0.1123047-0.9736328,0.1689453-1.5419922,0.1689453h-1.0917969l-0.5761719,3.2275391h-1.9799805l1.5-8.4960938
		H22.3720703z M21.7597656,13.9082031c0.5200195,0,0.934082-0.0830078,1.2421875-0.2480469
		c0.3076172-0.1650391,0.4619141-0.4560547,0.4619141-0.875c0-0.1845703-0.0341797-0.3398438-0.1020508-0.4648438
		c-0.0678711-0.1240234-0.1621094-0.2226562-0.2817383-0.2958984c-0.1201172-0.0722656-0.2641602-0.1220703-0.4321289-0.1503906
		s-0.3520508-0.0419922-0.5522461-0.0419922h-0.815918l-0.3720703,2.0761719H21.7597656z"/>
</g>
<g class="st0">
	<path d="M31.9677734,18.7197266l-0.2880859-1.6923828h-3.2753906l-1.0205078,1.6923828h-2.2797852l5.4116211-8.4960938h1.9443359
		l1.6074219,8.4960938H31.9677734z M31.0322266,12.4082031l-1.7763672,3.0117188h2.2197266L31.0322266,12.4082031z"/>
</g>
<g class="st0">
	<path d="M43.5078125,17.53125c-0.1679688,0.1845703-0.3623047,0.3623047-0.5820312,0.5341797
		c-0.2197266,0.1728516-0.4716797,0.3242188-0.7558594,0.4560547s-0.5957031,0.2363281-0.9355469,0.3125
		c-0.3408203,0.0751953-0.7148438,0.1132812-1.1220703,0.1132812c-0.6005859,0-1.140625-0.0878906-1.6201172-0.2636719
		c-0.4804688-0.1757812-0.8886719-0.4257812-1.2246094-0.75s-0.5957031-0.7138672-0.7792969-1.1699219
		c-0.1845703-0.4560547-0.2763672-0.9599609-0.2763672-1.5117188c0-0.7285156,0.1279297-1.4121094,0.3837891-2.0517578
		c0.2558594-0.640625,0.6103516-1.1982422,1.0625-1.6748047c0.4511719-0.4755859,0.9853516-0.8496094,1.6015625-1.1220703
		c0.6162109-0.2714844,1.2841797-0.4072266,2.0039062-0.4072266c0.671875,0,1.2763672,0.1181641,1.8125,0.3535156
		c0.5361328,0.2363281,0.9394531,0.5380859,1.2119141,0.90625l-1.4765625,1.3203125
		c-0.1357422-0.2080078-0.3378906-0.3925781-0.6054688-0.5527344c-0.2685547-0.1591797-0.6025391-0.2392578-1.0019531-0.2392578
		c-0.4238281,0-0.8105469,0.0898438-1.1582031,0.2695312s-0.6474609,0.4199219-0.9003906,0.7197266
		c-0.2519531,0.2998047-0.4472656,0.6445312-0.5878906,1.0322266c-0.1396484,0.3886719-0.2099609,0.7900391-0.2099609,1.2060547
		c0,0.2880859,0.0458984,0.5625,0.1386719,0.8222656c0.0917969,0.2597656,0.2255859,0.4853516,0.4013672,0.6777344
		s0.3945312,0.34375,0.6542969,0.4560547s0.5576172,0.1679688,0.8935547,0.1679688
		c0.3759766,0,0.7324219-0.0800781,1.0683594-0.2402344s0.6318359-0.3876953,0.8876953-0.6835938L43.5078125,17.53125z"/>
</g>
<g class="st0">
	<path d="M50.0283203,11.9394531l-1.2001953,6.7802734h-1.9921875l1.1884766-6.7802734h-2.3769531l0.3125-1.7158203H52.65625
		l-0.3007812,1.7158203H50.0283203z"/>
</g>
<g class="st0">
	<path d="M2.5898438,27.8398438H1.7099609l2.4560547-5.6640625h0.7197266l2.4321289,5.6640625H6.421875l-0.5761719-1.3916016
		H3.1577148L2.5898438,27.8398438z M3.4379883,25.7519531h2.1201172l-1.0561523-2.65625L3.4379883,25.7519531z"/>
	<path d="M11.237793,27.8398438h-0.7919922v-5.6640625h1.815918c0.2719727,0,0.5307617,0.0283203,0.7758789,0.0839844
		c0.2456055,0.0556641,0.4604492,0.1455078,0.644043,0.2685547c0.184082,0.1220703,0.3295898,0.2832031,0.4360352,0.4833984
		c0.1069336,0.2001953,0.1601562,0.4443359,0.1601562,0.7324219c0,0.4160156-0.1279297,0.7519531-0.3837891,1.0078125
		c-0.2563477,0.2558594-0.5869141,0.4189453-0.9921875,0.4882812l1.5839844,2.5996094h-0.9599609l-1.4399414-2.5195312H11.237793
		V27.8398438z M11.237793,24.65625h0.9121094c0.1865234,0,0.3598633-0.0166016,0.5200195-0.0488281
		c0.159668-0.03125,0.2998047-0.0839844,0.4199219-0.1552734c0.1201172-0.0722656,0.2143555-0.1660156,0.2841797-0.2802734
		c0.0688477-0.1142578,0.1040039-0.2568359,0.1040039-0.4277344s-0.0351562-0.3134766-0.1040039-0.4287109
		c-0.0698242-0.1142578-0.1616211-0.2060547-0.2763672-0.2753906s-0.2490234-0.1191406-0.4038086-0.1484375
		s-0.3173828-0.0439453-0.487793-0.0439453H11.237793V24.65625z"/>
	<path d="M22.6137695,26.9599609c-0.2241211,0.3037109-0.5146484,0.5507812-0.8720703,0.7402344
		c-0.3574219,0.1884766-0.7866211,0.2832031-1.2880859,0.2832031c-0.4316406,0-0.8305664-0.0732422-1.1958008-0.2197266
		s-0.6801758-0.3515625-0.9438477-0.6162109c-0.2641602-0.2636719-0.4707031-0.578125-0.6201172-0.9433594
		S17.4697266,25.4375,17.4697266,25c0-0.4423828,0.0761719-0.8466797,0.2280273-1.2119141s0.362793-0.6777344,0.6318359-0.9365234
		c0.2695312-0.2587891,0.5883789-0.4599609,0.9560547-0.6035156c0.3681641-0.1445312,0.7680664-0.2158203,1.2001953-0.2158203
		c0.1918945,0,0.3867188,0.0185547,0.5839844,0.0556641s0.3867188,0.09375,0.5678711,0.1679688
		c0.1811523,0.0751953,0.3466797,0.1669922,0.4960938,0.2763672s0.2773438,0.2353516,0.3842773,0.3798828l-0.6240234,0.4794922
		c-0.1391602-0.1914062-0.3349609-0.3505859-0.5883789-0.4755859s-0.5263672-0.1884766-0.8198242-0.1884766
		c-0.3305664,0-0.6279297,0.0605469-0.8920898,0.1806641s-0.4892578,0.2832031-0.6757812,0.4912109
		c-0.1870117,0.2080078-0.3310547,0.4501953-0.4321289,0.7246094C18.3842773,24.3984375,18.3339844,24.6904297,18.3339844,25
		c0,0.3203125,0.0493164,0.6181641,0.1479492,0.8955078s0.2397461,0.5195312,0.4238281,0.7246094
		s0.4082031,0.3662109,0.671875,0.4833984c0.2641602,0.1181641,0.5585938,0.1767578,0.8842773,0.1767578
		c0.3198242,0,0.6103516-0.0644531,0.8720703-0.1923828c0.2612305-0.1279297,0.4770508-0.3144531,0.6479492-0.5595703
		L22.6137695,26.9599609z"/>
	<path d="M25.8217773,22.1757812h0.7919922v2.3681641h2.8647461v-2.3681641h0.7998047v5.6640625h-0.7998047v-2.5917969h-2.8647461
		v2.5917969h-0.7919922V22.1757812z"/>
	<path d="M34.8457031,27.8398438h-0.7919922v-5.6640625h0.7919922V27.8398438z"/>
	<path d="M40.5019531,26.8154297h0.0234375l1.7041016-4.6396484h0.8564453l-2.2236328,5.6640625h-0.7363281l-2.2080078-5.6640625
		h0.8798828L40.5019531,26.8154297z"/>
	<path d="M46.9501953,27.1357422h2.9599609v0.7041016h-3.7519531v-5.6640625h3.6318359v0.6962891h-2.8398438v1.6953125h2.671875
		v0.6806641h-2.671875V27.1357422z"/>
</g>
<g class="st0">
	<path d="M4.6464844,5.5283203h0.015625l1.671875-4.3525391h1.2324219v5.6640625H6.7744141V2.1035156H6.7578125L4.8779297,6.8398438
		H4.3740234L2.5019531,2.1035156h-0.015625v4.7363281H1.7177734V1.1757812h1.2324219L4.6464844,5.5283203z"/>
</g>
<g class="st0">
	<path d="M12.0361328,6.8398438h-0.7998047V4.3916016L9.1162109,1.1757812h0.9760742l1.5678711,2.5605469l1.5761719-2.5605469
		H14.15625l-2.1201172,3.2158203V6.8398438z"/>
</g>
<g class="st0">
	<path d="M19.1796875,6.1357422h2.527832v0.7041016h-3.3198242V1.1757812h0.7919922V6.1357422z"/>
	<path d="M23.5874023,6.8398438h-0.8798828l2.4560547-5.6640625h0.7197266l2.4321289,5.6640625h-0.8955078l-0.5766602-1.3916016
		h-2.6879883L23.5874023,6.8398438z M24.4355469,4.7519531h2.1201172l-1.0561523-2.65625L24.4355469,4.7519531z"/>
	<path d="M33.4121094,6.8398438h-3.6962891V6.0957031l2.2558594-2.2402344
		c0.1708984-0.1757812,0.3173828-0.359375,0.4404297-0.5517578c0.1230469-0.1914062,0.1835938-0.4082031,0.1835938-0.6474609
		c0-0.1494141-0.0263672-0.2841797-0.0800781-0.4042969c-0.0527344-0.1201172-0.125-0.2226562-0.2158203-0.3085938
		c-0.0908203-0.0849609-0.1972656-0.1503906-0.3193359-0.1953125c-0.1230469-0.0458984-0.2539062-0.0683594-0.3925781-0.0683594
		c-0.2880859,0-0.5253906,0.0917969-0.7119141,0.2763672c-0.1865234,0.1835938-0.3037109,0.4199219-0.3515625,0.7080078
		l-0.7607422-0.1279297c0.0322266-0.2138672,0.1005859-0.4121094,0.2041016-0.5966797
		c0.1044922-0.1835938,0.2363281-0.34375,0.3964844-0.4794922s0.3447266-0.2412109,0.5556641-0.3164062
		c0.2109375-0.0742188,0.4365234-0.1113281,0.6757812-0.1113281c0.2353516,0,0.4599609,0.0341797,0.6767578,0.1035156
		c0.2158203,0.0693359,0.40625,0.1708984,0.5712891,0.3037109c0.1660156,0.1337891,0.2978516,0.3017578,0.3964844,0.5039062
		c0.0986328,0.203125,0.1474609,0.4355469,0.1474609,0.6962891c0,0.1816406-0.0234375,0.3496094-0.0712891,0.5039062
		c-0.0478516,0.1552734-0.1132812,0.3017578-0.1962891,0.4404297s-0.1796875,0.2705078-0.2919922,0.3955078
		c-0.1123047,0.1259766-0.2294922,0.25-0.3515625,0.3720703l-1.8408203,1.7919922h2.7763672V6.8398438z"/>
	<path d="M37.2597656,1.0322266c0.3359375,0,0.625,0.0771484,0.8681641,0.2314453
		c0.2421875,0.1552734,0.4423828,0.3671875,0.5996094,0.6357422c0.1572266,0.2695312,0.2734375,0.5859375,0.3486328,0.9482422
		c0.0742188,0.3632812,0.1113281,0.75,0.1113281,1.1601562c0,0.4160156-0.0371094,0.8037109-0.1113281,1.1640625
		c-0.0751953,0.3603516-0.1914062,0.6748047-0.3486328,0.9443359c-0.1572266,0.2685547-0.3574219,0.4814453-0.5996094,0.6357422
		c-0.2431641,0.1542969-0.5322266,0.2314453-0.8681641,0.2314453S36.6328125,6.90625,36.3876953,6.7519531
		s-0.4462891-0.3671875-0.6035156-0.6357422c-0.1582031-0.2695312-0.2734375-0.5839844-0.3486328-0.9443359
		c-0.0742188-0.3603516-0.1113281-0.7480469-0.1113281-1.1640625c0-0.4101562,0.0371094-0.796875,0.1113281-1.1601562
		c0.0751953-0.3623047,0.1904297-0.6787109,0.3486328-0.9482422c0.1572266-0.2685547,0.3583984-0.4804688,0.6035156-0.6357422
		C36.6328125,1.109375,36.9238281,1.0322266,37.2597656,1.0322266z M37.2597656,1.6796875
		c-0.234375,0-0.4267578,0.0761719-0.5761719,0.2285156c-0.1494141,0.1513672-0.265625,0.34375-0.3476562,0.5751953
		c-0.0830078,0.2324219-0.140625,0.484375-0.171875,0.7568359c-0.0322266,0.2714844-0.0478516,0.5273438-0.0478516,0.7675781
		s0.015625,0.4960938,0.0478516,0.7675781c0.03125,0.2724609,0.0888672,0.5234375,0.171875,0.7529297
		c0.0820312,0.2285156,0.1982422,0.4199219,0.3476562,0.5712891c0.1494141,0.1523438,0.3417969,0.2285156,0.5761719,0.2285156
		c0.2294922,0,0.4169922-0.0761719,0.5644531-0.2285156c0.1464844-0.1513672,0.2617188-0.3427734,0.3476562-0.5712891
		c0.0849609-0.2294922,0.1435547-0.4804688,0.1757812-0.7529297c0.0322266-0.2714844,0.0478516-0.5273438,0.0478516-0.7675781
		s-0.015625-0.4960938-0.0478516-0.7675781c-0.0322266-0.2724609-0.0908203-0.5244141-0.1757812-0.7568359
		c-0.0859375-0.2314453-0.2011719-0.4238281-0.3476562-0.5751953C37.6767578,1.7558594,37.4892578,1.6796875,37.2597656,1.6796875z"
		/>
	<path d="M44.4355469,1.8642578h-2.3359375l-0.0478516,1.4814453c0.1064453-0.0380859,0.2255859-0.0654297,0.3564453-0.0810547
		c0.1298828-0.0166016,0.2539062-0.0244141,0.3720703-0.0244141c0.2714844,0,0.5234375,0.0410156,0.7558594,0.1240234
		c0.2314453,0.0830078,0.4316406,0.2011719,0.5996094,0.3564453s0.2998047,0.34375,0.3964844,0.5654297
		c0.0957031,0.2216797,0.1435547,0.46875,0.1435547,0.7412109c0,0.2998047-0.0507812,0.5693359-0.1523438,0.8105469
		c-0.1005859,0.2402344-0.2392578,0.4443359-0.4160156,0.6132812C43.9316406,6.6191406,43.7236328,6.75,43.4833984,6.84375
		c-0.2392578,0.0927734-0.5009766,0.1396484-0.7832031,0.1396484c-0.4433594,0-0.8164062-0.1025391-1.1201172-0.3076172
		c-0.3046875-0.2050781-0.5332031-0.4814453-0.6884766-0.828125l0.7041016-0.2802734
		c0.0908203,0.2294922,0.2333984,0.4140625,0.4277344,0.5527344C42.21875,6.2587891,42.4443359,6.328125,42.7001953,6.328125
		c0.1650391,0,0.3193359-0.0292969,0.4638672-0.0878906c0.1435547-0.0585938,0.2695312-0.1416016,0.3759766-0.2480469
		c0.1064453-0.1074219,0.1904297-0.2353516,0.2519531-0.3847656c0.0615234-0.1484375,0.0917969-0.3144531,0.0917969-0.4951172
		c0-0.2138672-0.0361328-0.3994141-0.1083984-0.5566406c-0.0712891-0.1572266-0.1689453-0.2861328-0.2919922-0.3876953
		c-0.1220703-0.1015625-0.2636719-0.1757812-0.4238281-0.2246094c-0.1601562-0.0478516-0.328125-0.0712891-0.5039062-0.0712891
		c-0.2128906,0-0.4316406,0.0292969-0.65625,0.0878906c-0.2236328,0.0585938-0.4238281,0.1328125-0.5996094,0.2236328
		l0.0800781-3.0078125h3.0556641V1.8642578z"/>
	<path d="M48.5390625,1.0322266c0.3369141,0,0.6259766,0.0771484,0.8681641,0.2314453
		c0.2431641,0.1552734,0.4433594,0.3671875,0.6005859,0.6357422c0.1572266,0.2695312,0.2734375,0.5859375,0.3476562,0.9482422
		c0.0742188,0.3632812,0.1123047,0.75,0.1123047,1.1601562c0,0.4160156-0.0380859,0.8037109-0.1123047,1.1640625
		s-0.1904297,0.6748047-0.3476562,0.9443359c-0.1572266,0.2685547-0.3574219,0.4814453-0.6005859,0.6357422
		c-0.2421875,0.1542969-0.53125,0.2314453-0.8681641,0.2314453c-0.3359375,0-0.6259766-0.0771484-0.8710938-0.2314453
		c-0.2460938-0.1542969-0.4472656-0.3671875-0.6044922-0.6357422C46.90625,5.8466797,46.7900391,5.5322266,46.7158203,5.171875
		c-0.0751953-0.3603516-0.1123047-0.7480469-0.1123047-1.1640625c0-0.4101562,0.0371094-0.796875,0.1123047-1.1601562
		c0.0742188-0.3623047,0.1904297-0.6787109,0.3476562-0.9482422c0.1572266-0.2685547,0.3583984-0.4804688,0.6044922-0.6357422
		C47.9130859,1.109375,48.203125,1.0322266,48.5390625,1.0322266z M48.5390625,1.6796875
		c-0.234375,0-0.4267578,0.0761719-0.5751953,0.2285156c-0.1494141,0.1513672-0.265625,0.34375-0.3486328,0.5751953
		c-0.0820312,0.2324219-0.1396484,0.484375-0.171875,0.7568359c-0.0322266,0.2714844-0.0478516,0.5273438-0.0478516,0.7675781
		s0.015625,0.4960938,0.0478516,0.7675781c0.0322266,0.2724609,0.0898438,0.5234375,0.171875,0.7529297
		c0.0830078,0.2285156,0.1992188,0.4199219,0.3486328,0.5712891c0.1484375,0.1523438,0.3408203,0.2285156,0.5751953,0.2285156
		c0.2294922,0,0.4179688-0.0761719,0.5644531-0.2285156C49.25,5.9482422,49.3662109,5.7568359,49.4511719,5.5283203
		c0.0859375-0.2294922,0.1445312-0.4804688,0.1767578-0.7529297c0.03125-0.2714844,0.0478516-0.5273438,0.0478516-0.7675781
		s-0.0166016-0.4960938-0.0478516-0.7675781c-0.0322266-0.2724609-0.0908203-0.5244141-0.1767578-0.7568359
		C49.3662109,2.2519531,49.25,2.0595703,49.1035156,1.9082031C48.9570312,1.7558594,48.7685547,1.6796875,48.5390625,1.6796875z"/>
</g>
</svg>
