<?xml version="1.0" encoding="utf-8"?>
<!-- Generator: Adobe Illustrator 22.0.1, SVG Export Plug-In . SVG Version: 6.00 Build 0)  -->
<svg version="1.1" id="Layer_1" xmlns="http://www.w3.org/2000/svg" xmlns:xlink="http://www.w3.org/1999/xlink" x="0px" y="0px"
   viewBox="0 0 45 10" style="enable-background:new 0 0 45 10;" xml:space="preserve">
<g>
  <path d="M0.8,9.2V0.7h2.1v6.7h3.3v1.8H0.8z"/>
  <path d="M12.6,9.2l-0.7-1.7H8.7L8.1,9.2H5.8l3.6-8.5h2l3.5,8.5H12.6z M10.4,3L9.3,5.9h2.1L10.4,3z"/>
  <path d="M15.3,9.2V7.5l3.3-3c0.2-0.2,0.4-0.4,0.5-0.6c0.1-0.2,0.2-0.4,0.2-0.7S19.2,2.7,19,2.5c-0.2-0.2-0.4-0.3-0.8-0.3
    c-0.3,0-0.6,0.1-0.8,0.4c-0.2,0.2-0.3,0.5-0.4,0.9l-1.9-0.3c0-0.4,0.2-0.8,0.4-1.2c0.2-0.3,0.4-0.6,0.7-0.9c0.3-0.2,0.6-0.4,1-0.5
    c0.4,0,0.8-0.1,1.2-0.1s0.8,0.1,1.1,0.2c0.4,0.1,0.7,0.3,1,0.5S21,1.7,21.2,2s0.3,0.7,0.3,1.2c0,0.3,0,0.6-0.1,0.8
    s-0.2,0.5-0.3,0.7s-0.3,0.4-0.5,0.6S20.2,5.7,20,5.8l-2,1.8h3.5v1.8h-6.2V9.2z"/>
  <path d="M29.2,5c0,0.6-0.1,1.2-0.2,1.7s-0.3,1-0.6,1.4c-0.3,0.4-0.6,0.7-1,1c-0.4,0.2-0.9,0.4-1.5,0.4s-1.1-0.1-1.5-0.4
    c-0.4-0.2-0.8-0.6-1-1c-0.3-0.4-0.5-0.9-0.6-1.4S22.6,5.6,22.6,5s0.1-1.2,0.2-1.7s0.3-1,0.6-1.4c0.3-0.4,0.6-0.7,1-1
    s0.9-0.4,1.5-0.4s1.1,0.1,1.5,0.4c0.4,0.2,0.8,0.6,1,1c0.3,0.4,0.5,0.9,0.6,1.4C29.2,3.8,29.2,4.4,29.2,5z M27.2,5
    c0-0.3,0-0.6,0-0.9S27.1,3.5,27,3.2s-0.3-0.5-0.5-0.7c-0.2-0.2-0.4-0.3-0.6-0.3c-0.3,0-0.5,0.1-0.6,0.3c-0.2,0.2-0.3,0.4-0.4,0.7
    s-0.2,0.6-0.2,0.9s0,0.6,0,0.9s0,0.6,0,0.9s0.1,0.6,0.2,0.8C25,7,25.1,7.2,25.3,7.4c0.2,0.2,0.4,0.3,0.6,0.3c0.3,0,0.5-0.1,0.6-0.3
    c0.2-0.2,0.3-0.4,0.4-0.7C27,6.4,27,6.1,27.1,5.8S27.2,5.2,27.2,5z"/>
  <path d="M36.5,6.4c0,0.5-0.1,1-0.3,1.3c-0.1,0.4-0.4,0.8-0.7,1s-0.7,0.4-1,0.6s-0.8,0.2-1.3,0.2c-0.4,0-0.8,0-1.1-0.1
    c-0.3-0.1-0.7-0.2-0.9-0.4c-0.3-0.2-0.5-0.4-0.7-0.7s-0.4-0.6-0.4-0.9l1.7-0.7c0.1,0.3,0.3,0.5,0.5,0.7s0.5,0.3,0.9,0.3
    c0.3,0,0.6-0.1,0.9-0.3s0.4-0.5,0.4-0.9c0-0.2-0.1-0.5-0.2-0.6c-0.1-0.2-0.2-0.3-0.4-0.4s-0.4-0.2-0.6-0.2s-0.4-0.1-0.6-0.1
    c-0.3,0-0.6,0-1,0.1s-0.7,0.2-1,0.3l0.2-4.9h5.2v1.8h-3.4l-0.1,1.3c0.1,0,0.3-0.1,0.4-0.1c0.2,0,0.3,0,0.4,0c0.4,0,0.8,0.1,1.2,0.2
    c0.4,0.1,0.7,0.3,1,0.5c0.3,0.2,0.5,0.5,0.7,0.8S36.5,6,36.5,6.4z"/>
  <path d="M44.2,5c0,0.6-0.1,1.2-0.2,1.7c-0.1,0.5-0.3,1-0.6,1.4c-0.3,0.4-0.6,0.7-1,1c-0.4,0.2-0.9,0.4-1.5,0.4
    c-0.6,0-1.1-0.1-1.5-0.4c-0.4-0.2-0.8-0.6-1-1c-0.3-0.4-0.5-0.9-0.6-1.4S37.6,5.6,37.6,5s0.1-1.2,0.2-1.7c0.1-0.5,0.3-1,0.6-1.4
    s0.6-0.7,1-1s0.9-0.4,1.5-0.4s1.1,0.1,1.5,0.4c0.4,0.2,0.8,0.6,1,1c0.3,0.4,0.5,0.9,0.6,1.4C44.2,3.8,44.2,4.4,44.2,5z M42.2,5
    c0-0.3,0-0.6,0-0.9S42.1,3.5,42,3.2s-0.3-0.5-0.4-0.7c-0.2-0.2-0.4-0.3-0.6-0.3c-0.3,0-0.5,0.1-0.6,0.3c-0.2,0.2-0.3,0.4-0.4,0.7
    s-0.2,0.6-0.2,0.9s0,0.6,0,0.9s0,0.6,0,0.9s0,0.6,0.1,0.8C40,7,40.1,7.2,40.3,7.4s0.4,0.3,0.6,0.3c0.3,0,0.5-0.1,0.6-0.3
    c0.2-0.2,0.3-0.4,0.4-0.7C42,6.4,42,6.1,42.1,5.8S42.2,5.2,42.2,5z"/>
</g>
</svg>
