<?xml version="1.0" encoding="utf-8"?>
<!-- Generator: Adobe Illustrator 22.0.1, SVG Export Plug-In . SVG Version: 6.00 Build 0)  -->
<svg version="1.1" id="Layer_1" xmlns="http://www.w3.org/2000/svg" xmlns:xlink="http://www.w3.org/1999/xlink" x="0px" y="0px"
	 width="501px" height="501px" viewBox="0 0 501 501" style="enable-background:new 0 0 501 501;" xml:space="preserve">
<style type="text/css">
	.st0{stroke:#000000;stroke-width:5;stroke-miterlimit:10;}
</style>
<path class="st0" d="M93.0265427,462.1045532c9.9235306,9.9235229,22.7657318,15.1771545,36.7754135,15.1771545h236.9970856
	c14.0097046,0,26.8518677-5.2536316,36.7754211-15.1771545c9.9235229-9.9234924,15.1771545-23.3494568,14.5934448-36.7754211
	l-5.2536621-238.7483215c3.5024109-7.0048523,5.2536621-15.1771545,5.2536621-23.933197l-2.3349609-45.5314407
	c-1.7512512-27.4356308-23.933197-49.0338821-50.7850952-50.2013626V29.555666c0-3.5024223-2.3349609-5.8373661-5.8373718-5.8373661
	h-44.3639526c-3.5024109,0-5.8373718,2.3349438-5.8373718,5.8373661v36.7754135h-19.8470764
	c-2.3349304-19.8470497-19.2633057-35.0242081-40.277832-35.0242081s-37.9428864,15.1771564-40.2778473,35.0242081h-20.4307709
	V29.555666c0-3.5024223-2.3349609-5.8373661-5.8373718-5.8373661h-44.3639984c-3.5024109,0-5.8373566,2.3349438-5.8373566,5.8373661
	v36.7754135c-27.4356232,1.1674728-49.6176224,22.7657242-50.7850952,50.201355l-2.334938,45.5314713
	c0,8.1723175,1.7512054,16.3446198,5.253624,23.349472l-5.253624,238.7483368
	C78.4331284,438.7550964,83.6867523,452.1810608,93.0265427,462.1045532z M395.4021606,453.9322205
	c-7.5885925,7.5885925-17.5121155,11.6747437-28.6031189,11.6747437H129.8019562
	c-10.5072632,0-21.0145264-4.0861511-28.6031036-11.6747437c-7.5885696-7.5885925-11.6747284-18.0958252-11.0909958-28.6030884
	l4.6698914-224.1549072c9.3397903,8.7560425,21.5982666,13.4259338,35.0242081,13.4259338h90.479187v30.3543091
	c0,3.5024109,2.3349457,5.8373718,5.8373718,5.8373718h44.3639679c3.5024109,0,5.8373718-2.3349609,5.8373718-5.8373718v-30.3543091
	h90.479187c12.8421936,0,25.100708-4.6698914,35.0242004-13.4259338l4.6699219,224.1549072
	C407.0768738,435.8363953,402.9907532,445.7599487,395.4021606,453.9322205z M265.2288818,202.9254761h-32.6892548v-21.5982666
	h32.6892548V202.9254761z M265.2288818,214.6002045v24.5169525h-32.6892548v-24.5169525H265.2288818z M320.1000977,35.3930321
	h32.68927v30.9380455h-32.68927V35.3930321z M248.3004913,42.9816132c14.5934296,0,26.2681732,9.9235229,28.6031036,23.3494644
	h-56.6224518C222.0323486,52.9051361,234.2908325,42.9816132,248.3004913,42.9816132z M176.500885,35.3930321v30.9380455
	h-32.6892395V35.3930321H176.500885z M93.0265427,117.699913c1.1674805-22.1819916,19.8470459-39.6941071,42.0290451-39.6941071
	h227.0735931c22.1820068,0,40.8615723,17.5121002,42.0290222,39.6940918l2.3349609,44.947731
	c0,10.5072632-3.5024109,21.0145111-11.0910034,28.6031036c-7.5885925,7.5886078-17.5121155,11.6747437-28.6031189,11.6747437
	H276.903595v-27.4356384c0-3.5024109-2.3349304-5.8373566-5.8373413-5.8373566h-44.3639984
	c-3.5024109,0-5.8373718,2.3349457-5.8373718,5.8373566v28.0193634h-91.0629272
	c-10.5072632,0-21.0145264-4.0861664-28.6031036-11.6747284c-7.5885696-7.5885773-11.6747284-18.0958405-11.0909958-28.6031189
	L93.0265427,117.699913z"/>
<path class="st0" d="M356.8755493,289.318512H136.223053c-3.5024109,0-5.8373566,2.3349304-5.8373566,5.8373413v103.9051514
	c0,11.6747437,9.9235229,21.5982666,21.5982513,21.5982666h189.714447c11.6747437,0,21.5982361-9.9235229,21.5982361-21.5982666
	V295.1558533C362.7128906,292.2371826,360.3779602,289.318512,356.8755493,289.318512z M351.0381775,399.0610046
	c0,5.2536621-4.6699219,9.9235229-9.9235229,9.9235229H151.9839478c-5.2536469,0-9.9235382-4.6699219-9.9235382-9.9235229
	v-98.0677795h209.5614777v98.0677795H351.0381775z"/>
</svg>
