<?xml version="1.0" encoding="utf-8"?>
<!-- Generator: Adobe Illustrator 22.0.1, SVG Export Plug-In . SVG Version: 6.00 Build 0)  -->
<svg version="1.1" id="Layer_1" xmlns="http://www.w3.org/2000/svg" xmlns:xlink="http://www.w3.org/1999/xlink" x="0px" y="0px"
	 width="501px" height="501px" viewBox="0 0 501 501" style="enable-background:new 0 0 501 501;" xml:space="preserve">
<style type="text/css">
	.st0{stroke:#000000;stroke-width:2;stroke-miterlimit:10;}
</style>
<path class="st0" d="M222.1660309,424.1435242h56.667923c3.6560059,0,6.0933533-2.4373474,6.0933533-6.0933228v-87.743927
	c0-3.6559753-2.4373474-6.0933228-6.0933533-6.0933228h-56.667923c-3.6559906,0-6.0933228,2.4373474-6.0933228,6.0933228v87.743927
	C216.0727081,421.0968628,219.1193695,424.1435242,222.1660309,424.1435242z M228.2593536,336.3996277h44.4812775v75.557251
	h-44.4812775V336.3996277z"/>
<path class="st0" d="M312.3472595,424.1435242h56.6679382c3.6559753,0,6.0933228-2.4373474,6.0933228-6.0933228v-87.743927
	c0-3.6559753-2.4373474-6.0933228-6.0933228-6.0933228h-56.6679382c-3.6559753,0-6.0933228,2.4373474-6.0933228,6.0933228v87.743927
	C306.2539368,421.0968628,309.3005981,424.1435242,312.3472595,424.1435242z M318.4405823,336.3996277h44.4812927v75.557251
	h-44.4812927V336.3996277z"/>
<path class="st0" d="M222.1660309,260.8423767h56.667923c3.6560059,0,6.0933533-2.4373474,6.0933533-6.0933228v-87.7438812
	c0-3.6559906-2.4373474-6.093338-6.0933533-6.093338h-56.667923c-3.6559906,0-6.0933228,2.4373474-6.0933228,6.093338v87.7439117
	C216.0727081,258.4050598,219.1193695,260.8423767,222.1660309,260.8423767z M228.2593536,173.0984955h44.4812775v75.557251
	h-44.4812775V173.0984955z"/>
<path class="st0" d="M133.2034607,260.8423767h56.6679535c3.6559753,0,6.0933228-2.4373474,6.0933228-6.0933228v-87.7438812
	c0-3.6559906-2.4373474-6.093338-6.0933228-6.093338H133.203476c-3.6559906,0-6.0933228,2.4373474-6.0933228,6.093338v87.7439117
	C127.1101379,258.4050598,129.5474701,260.8423767,133.2034607,260.8423767z M139.2967987,173.0984955h44.4812775v75.557251
	h-44.4812775V173.0984955z"/>
<path class="st0" d="M312.3472595,260.8423767h56.6679382c3.6559753,0,6.0933228-2.4373474,6.0933228-6.0933228v-87.7438812
	c0-3.6559906-2.4373474-6.093338-6.0933228-6.093338h-56.6679382c-3.6559753,0-6.0933228,2.4373474-6.0933228,6.093338v87.7439117
	C306.2539368,258.4050598,309.3005981,260.8423767,312.3472595,260.8423767z M318.4405823,173.0984955h44.4812927v75.557251
	h-44.4812927V173.0984955z"/>
<path class="st0" d="M85.0661926,98.1505737h7.3119965v380.2235718c0,3.6559753,2.4373245,6.0933228,6.0933228,6.0933228
	h308.9316406c3.6559753,0,6.0933228-2.4373474,6.0933228-6.0933228V98.1505737h7.3119812
	c3.6559753,0,6.0933228-2.4373322,6.0933228-6.0933304V55.4972878c0-3.6559982-2.4373474-6.0933266-6.0933228-6.0933266H209.9793854
	V22.5933266c0-3.6559982-2.4373474-6.0933266-6.0933228-6.0933266h-32.9039764
	c-3.6559906,0-6.0933228,2.4373283-6.0933228,6.0933266v26.8106346h-9.1399994V22.5933266
	c0-3.6559982-2.4373322-6.0933266-6.0933228-6.0933266h-32.9039612c-3.6559982,0-6.0933304,2.4373283-6.0933304,6.0933266
	v26.8106346H85.0661926c-3.6559982,0-6.0933304,2.4373283-6.0933304,6.0933266v36.5599556
	C78.9728622,95.1039124,81.4101944,98.1505737,85.0661926,98.1505737z M183.7780762,471.6714783h-44.4812775V336.3996277h44.4812775
	V471.6714783z M400.700531,471.6714783H195.9647369V330.3062744c0-3.6559753-2.4373474-6.0933228-6.0933228-6.0933228H133.203476
	c-3.6559906,0-6.0933228,2.4373474-6.0933228,6.0933228v141.3651733h-22.545311V98.1505737H401.309845v373.5209045H400.700531z
	 M177.0754089,28.0773182h20.7173157v20.7173061h-20.7173157V28.0773182z M122.8448181,28.0773182h20.7173157v20.7173061
	h-20.7173004L122.8448181,28.0773182z M91.1595154,60.9812775h322.9462891v24.3733063H91.1595154V60.9812775z"/>
</svg>
