<?xml version="1.0" encoding="utf-8"?>
<!-- Generator: Adobe Illustrator 22.0.1, SVG Export Plug-In . SVG Version: 6.00 Build 0)  -->
<svg version="1.1" id="Layer_1" xmlns="http://www.w3.org/2000/svg" xmlns:xlink="http://www.w3.org/1999/xlink" x="0px" y="0px"
	 width="501px" height="501px" viewBox="0 0 501 501" style="enable-background:new 0 0 501 501;" xml:space="preserve">
<style type="text/css">
	.st0{stroke:#000000;stroke-width:0.75;stroke-miterlimit:10;}
</style>
<g>
	<path class="st0" d="M301.9554443,320.7523499H196.9591522c-3.9068451,0-7.3253326,3.4184875-7.3253326,7.3253479
		c0,3.9068298,3.4184875,7.3253174,7.3253326,7.3253174h104.9962921c3.9068298,0,7.3253174-3.4184875,7.3253174-7.3253174
		C309.2807617,324.1708374,305.8622742,320.7523499,301.9554443,320.7523499z"/>
	<path class="st0" d="M283.886322,350.0536499h-68.3696899c-3.9068451,0-7.3253326,3.4184875-7.3253326,7.3253174
		c0,3.9068604,3.4184875,7.3253479,7.3253326,7.3253479h68.3696899c3.9068298,0,7.3253174-3.4184875,7.3253174-7.3253479
		C291.2116394,353.4721375,287.7931519,350.0536499,283.886322,350.0536499z"/>
	<path class="st0" d="M451.3920593,147.3863831h-10.7438049v-39.0683899c0-22.9526749-18.5574951-41.5101624-41.5101624-41.5101624
		H99.7765198c-22.9526825,0-41.5101662,18.5574875-41.5101662,41.5101624v34.184845H48.0109024
		C36.7787399,142.5028381,27.5,152.7582855,27.5,165.9438629v14.65065c0,12.6972351,9.2787437,22.9526825,20.5109024,22.9526825
		h10.2554512v161.1571198c0,22.9526367,18.5574837,41.5101624,41.5101662,41.5101624h0.9767075v15.1389771
		c0,32.2314148,17.58078,36.6266174,28.3245773,36.6266174h4.3952026c10.7438049,0,28.324585-4.8835449,28.324585-36.6266174
		v-15.1389771h178.249527v15.1389771c0,32.2314148,17.58078,36.6266174,28.324585,36.6266174h4.3952026
		c10.7438049,0,28.3246155-4.8835449,28.3246155-36.6266174v-15.1389771
		c21.9759521-0.9767151,39.5567322-19.0458679,39.5567322-41.5101624V208.4307404h10.7438049
		c11.2321777,0,20.5108643-10.2554474,20.5108643-23.4410248v-14.65065
		C471.9029236,157.6418304,462.624176,147.3863831,451.3920593,147.3863831z M99.7765198,81.4584732h299.3615417
		c14.6506348,0,26.8594971,12.2088699,26.8594971,26.85952v36.6266174H72.9170074v-36.6266174
		C72.9170074,93.6673431,85.1258698,81.4584732,99.7765198,81.4584732z M72.9170074,159.5952606h353.0806274V281.68396H72.9170074
		V159.5952606z M48.0109024,188.8965454c-2.9301262,0-5.8602562-3.9068298-5.8602562-8.79039v-14.6506348
		c0-4.3952026,2.93013-8.79039,5.8602562-8.79039h10.2554512v32.2314148H48.0109024z M147.1469421,421.3534546
		c0,21.9759827-9.7670898,21.9759827-13.6739349,21.9759827h-4.3951874c-3.9068375,0-13.6739349,0-13.6739349-21.9759827
		v-15.1389771h31.7430725L147.1469421,421.3534546z M372.7668762,443.8177795h-4.3952026
		c-3.9068604,0-13.6739502,0-13.6739502-21.9759827v-15.1389771h31.7430725v15.1389771
		C386.4408264,443.8177795,376.6737366,443.8177795,372.7668762,443.8177795z M399.1380615,391.5638123H99.7765198
		c-14.65065,0-26.85952-12.2088623-26.85952-26.8594971v-68.3696899h353.0806274v68.3696899
		C425.9975586,379.35495,414.2770386,391.5638123,399.1380615,391.5638123z M457.2522888,184.9897156
		c0,4.3952026-2.9301147,8.7903748-5.8602295,8.7903748h-10.7438049v-31.7430573h10.7438049
		c3.418457,0,5.8602295,3.9068298,5.8602295,8.7903748V184.9897156z"/>
	<path class="st0" d="M289.746582,177.6643829c-2.4417725-3.4184875-6.8369751-4.3952026-10.2554626-1.9534149
		l-92.7874146,63.4861298c-3.4184875,2.4417725-4.3952026,6.8369751-1.9534302,10.2554474
		c1.4650574,1.9534149,3.9068298,3.4184875,5.86026,3.4184875c1.4650574,0,2.93013-0.4883575,3.9068298-1.4650726
		l92.7874451-63.4861298C291.2116394,185.4780579,292.1883545,180.5945129,289.746582,177.6643829z"/>
	<path class="st0" d="M304.3972168,202.0821381c-2.4417725-3.4184875-6.8369751-4.3952026-10.2554321-1.9534302
		l-58.6026001,39.0683899c-3.4184875,2.4417725-4.3952026,6.8369751-1.9534302,10.2554474
		c1.4650726,1.9534149,3.9068451,3.4184875,5.8602753,3.4184875c1.4650574,0,2.9301147-0.4883575,3.9068298-1.4650726
		l58.6025848-39.0683899C305.8622742,209.8957977,306.8389893,205.5006256,304.3972168,202.0821381z"/>
	<path class="st0" d="M122.7292023,310.98526c-17.58078,0-31.7430725,14.1622925-31.7430725,31.7430725
		s14.1622925,31.7430725,31.7430725,31.7430725s31.7430725-14.1622925,31.7430725-31.7430725
		S140.3099823,310.98526,122.7292023,310.98526z M122.7292023,359.8207397c-9.2787399,0-17.0924225-7.8136597-17.0924225-17.0924072
		s7.8136826-17.0924072,17.0924225-17.0924072s17.0924225,7.8136597,17.0924225,17.0924072
		S132.0079346,359.8207397,122.7292023,359.8207397z"/>
	<path class="st0" d="M376.6737366,310.98526c-17.58078,0-31.7430725,14.1622925-31.7430725,31.7430725
		s14.1622925,31.7430725,31.7430725,31.7430725s31.7430725-14.1622925,31.7430725-31.7430725
		S394.2545166,310.98526,376.6737366,310.98526z M376.6737366,359.8207397c-9.2787476,0-17.0924072-7.8136597-17.0924072-17.0924072
		s7.8136597-17.0924072,17.0924072-17.0924072s17.0924072,7.8136597,17.0924072,17.0924072
		S385.9524841,359.8207397,376.6737366,359.8207397z"/>
	<rect x="213.0748596" y="105.8762207" class="st0" width="73.2532349" height="14.6506462"/>
</g>
</svg>
