<?xml version="1.0" encoding="utf-8"?>
<!-- Generator: Adobe Illustrator 22.0.1, SVG Export Plug-In . SVG Version: 6.00 Build 0)  -->
<svg version="1.1" id="Layer_1" xmlns="http://www.w3.org/2000/svg" xmlns:xlink="http://www.w3.org/1999/xlink" x="0px" y="0px"
	 width="501px" height="501px" viewBox="0 0 501 501" style="enable-background:new 0 0 501 501;" xml:space="preserve">
<style type="text/css">
	.st0{stroke:#000000;stroke-width:4;stroke-miterlimit:10;}
</style>
<path class="st0" d="M398.5466614,320.3075256V188.3796234c37.7863464-3.7112732,67.411499-35.6548004,67.411499-74.4000702
	c0-41.2300797-33.5429077-74.7730103-74.7729797-74.7730103c-38.7453003,0-70.6888123,29.6251678-74.4000854,67.4115295H184.8404388
	c-3.7112732-37.7863617-35.6547852-67.4115295-74.4000702-67.4115295c-41.2300797,0-74.7730103,33.5429306-74.7730103,74.7730103
	c0,38.7452698,29.6251678,70.688797,67.4115295,74.4000702v131.9446564
	c-37.7863617,3.7112732-67.4115295,35.6547852-67.4115295,74.4000549c0,41.2301025,33.5429306,74.7730103,74.7730103,74.7730103
	c38.745285,0,70.688797-29.6251526,74.4000702-67.411499h132.2755585
	c3.7112732,37.7863464,35.6548157,67.411499,74.4000854,67.411499c41.230072,0,74.7730103-33.5429077,74.7730103-74.7730103
	C466.289093,355.8674622,436.4889526,323.8661499,398.5466614,320.3075256z M316.9151001,391.3285522H185.0413513
	c-1.7428589-38.5151367-32.6900482-69.4623108-71.2051926-71.2052002V188.5805359
	c38.5151443-1.7428741,69.4623337-32.6900482,71.2051926-71.2052002h131.5428162
	c1.7428894,38.515152,32.6900635,69.462326,71.2052002,71.2052002v131.5595703
	C349.4281921,322.0448303,318.6530457,352.9237061,316.9151001,391.3285522z M100.2529984,119.9175873
	c-7.4665298-4.0654907-12.1045532-11.8655624-12.1045532-20.3563538c0-12.7716293,10.3895874-23.1612167,23.1612244-23.1612167
	s23.1612167,10.3895874,23.1612167,23.1612167c0,8.7455368-4.8612518,16.6506577-12.6849594,20.6347351
	c-1.9355774,0.9848633-3.0885162,3.0359879-2.9230576,5.2000504c0.1628265,2.1640625,1.6125412,4.0155869,3.6715469,4.6984329
	c15.2991104,5.0664368,25.6440506,19.0313873,26.2674637,35.0110168
	c-10.7060547,8.0541687-23.9635544,12.8898163-38.3615112,12.8898163c-14.3973083,0-27.6544724-4.8356476-38.360527-12.8891602
	c0.6289902-16.4169159,11.3311081-30.508255,27.1646652-35.31633c2.0747681-0.6303101,3.5664978-2.4450684,3.7871094-4.6012497
	C103.2522202,123.0323639,102.1570587,120.9549713,100.2529984,119.9175873z M381.0004272,119.9175873
	c-7.4691467-4.0654907-12.1071777-11.8655624-12.1071777-20.3563538c0-12.7716293,10.3895874-23.1612167,23.1612244-23.1612167
	s23.1612244,10.3895874,23.1612244,23.1612167c0,8.7455368-4.8612671,16.6506577-12.684967,20.6347351
	c-1.9355774,0.9848633-3.0885315,3.0359879-2.9230652,5.2000504c0.1628418,2.1640625,1.6125488,4.0155869,3.6715393,4.6984329
	c15.2991028,5.0664368,25.6440735,19.0313873,26.2674866,35.0110168
	c-10.7060852,8.0541687-23.963562,12.8898163-38.3615112,12.8898163c-14.3973083,0-27.65448-4.8356476-38.3605347-12.8891602
	c0.6289978-16.4169159,11.3311157-30.508255,27.1646729-35.31633c2.0747681-0.6303101,3.5664978-2.4450684,3.7870789-4.6012497
	C383.9970093,123.0323639,382.9018555,120.9549713,381.0004272,119.9175873z M391.1851807,49.96381
	c35.2972717,0,64.0157166,28.7184486,64.0157166,64.0157471c0,16.1677399-6.0726318,30.9110565-15.9953918,42.1906433
	c-2.9453735-13.5926819-11.4338684-25.3545074-23.5328369-32.2711639c6.5079346-6.282074,10.300293-14.9803391,10.300293-24.3377991
	c0-18.7017822-15.2167053-33.9184875-33.9184875-33.9184875s-33.9184875,15.2167053-33.9184875,33.9184875
	c0,8.9897842,3.5480957,17.4490509,9.6463318,23.696991c-12.7135315,6.8047028-21.6110535,18.8252258-24.6247253,32.9040833
	c-9.9184875-11.2785797-15.9881592-26.0192719-15.9881592-42.1827545
	C327.1694336,78.6822586,355.8878784,49.96381,391.1851807,49.96381z M46.4246292,113.9795532
	c0-35.2972946,28.7184448-64.0157471,64.0157394-64.0157471s64.0157318,28.7184486,64.0157318,64.0157471
	c0,16.1677399-6.0726318,30.9110565-15.9953918,42.1906433c-2.9453888-13.5926819-11.4338684-25.3545074-23.5328369-32.2711639
	c6.5079346-6.282074,10.300293-14.9803391,10.300293-24.3377991c0-18.7017822-15.2167053-33.9184875-33.9184952-33.9184875
	S77.3911743,80.8594513,77.3911743,99.5612335c0,8.9897842,3.548111,17.4490509,9.6463547,23.696991
	c-12.7135315,6.8047028-21.6110611,18.8252258-24.6247215,32.9040833
	C52.4943047,144.883728,46.4246292,130.1430359,46.4246292,113.9795532z M72.0801697,445.8512573
	c0.6299744-16.4159241,11.3317719-30.5062866,27.1643372-35.3140259c2.0747681-0.6303101,3.5664978-2.4450684,3.7871094-4.6012573
	c0.2206039-2.156189-0.8745575-4.2335815-2.7786179-5.2709656c-7.4665298-4.0654907-12.1045532-11.8655701-12.1045532-20.3589783
	c0-12.771637,10.3895874-23.1612244,23.1612244-23.1612244s23.1612167,10.3895874,23.1612167,23.1612244
	c0,8.7455444-4.8612518,16.6506653-12.6849594,20.6347351c-1.9355774,0.9848633-3.0885162,3.0359802-2.9230576,5.2000427
	c0.1628265,2.1640625,1.6125412,4.0155945,3.6715469,4.6984253c15.2984543,5.0664368,25.6427383,19.030426,26.2671432,35.0113525
	c-10.7060699,8.0538635-23.963562,12.8894958-38.3611908,12.8894958
	C96.0430603,458.7400818,82.7858963,453.9047546,72.0801697,445.8512573z M158.4603729,436.9153137
	c-2.9453735-13.5936584-11.4338684-25.3551636-23.5325012-32.2714844c6.5053101-6.282074,10.300293-14.9803467,10.300293-24.3377991
	c0-18.7017822-15.2167053-33.9184875-33.9184952-33.9184875s-33.9184952,15.2167053-33.9184952,33.9184875
	c0,8.9897766,3.5507431,17.4516907,9.6463547,23.6996155c-12.7128754,6.8043823-21.6100769,18.8235779-24.6243935,32.9017944
	c-9.9188309-11.278595-15.9885063-26.0192871-15.9885063-42.1831055c0-35.2972717,28.7184448-64.0157166,64.0157394-64.0157166
	s64.0157318,28.7184448,64.0157318,64.0157166C174.4561005,410.8920898,168.3831482,425.6357422,158.4603729,436.9153137z
	 M353.1558838,445.8512573c0.6299744-16.4159241,11.3317566-30.5062866,27.1643372-35.3140259
	c2.0747681-0.6303101,3.5664978-2.4450684,3.7871094-4.6012573s-0.8745728-4.2335815-2.776001-5.2709656
	c-7.4691467-4.0654907-12.1071777-11.8681946-12.1071777-20.3589783c0-12.771637,10.3895874-23.1612244,23.1612244-23.1612244
	s23.1612244,10.3895874,23.1612244,23.1612244c0,8.7455444-4.8612671,16.6506653-12.684967,20.6347351
	c-1.9355774,0.9848633-3.088501,3.0359802-2.9230652,5.2000427c0.1628418,2.1640625,1.6125488,4.0155945,3.6715698,4.6984253
	c15.2984314,5.0664368,25.6427307,19.030426,26.2671204,35.0113525
	c-10.7060547,8.0538635-23.963562,12.8894958-38.3611755,12.8894958
	C377.1187744,458.7400818,363.8616028,453.9047546,353.1558838,445.8512573z M439.5361023,436.9153137
	c-2.9454041-13.5936584-11.4338684-25.3551636-23.5325317-32.2714844c6.5053101-6.282074,10.300293-14.9803467,10.300293-24.3377991
	c0-18.7017822-15.2167053-33.9184875-33.9184875-33.9184875s-33.9184875,15.2167053-33.9184875,33.9184875
	c0,8.9897766,3.5507507,17.4516907,9.6463623,23.6996155c-12.710907,6.8040466-21.609436,18.8248901-24.6240845,32.9021301
	c-9.9188232-11.278595-15.9888306-26.0192871-15.9888306-42.1834412c0-35.2972717,28.7184448-64.0157166,64.0157471-64.0157166
	s64.0157471,28.7184448,64.0157471,64.0157166C455.5318298,410.8920898,449.4588623,425.6357422,439.5361023,436.9153137z"/>
<path class="st0" d="M251.3984222,248.952301h-0.9559631c-10.0140228,0-18.1607666-8.1073456-18.1607666-18.0740967
	c0-9.9667664,8.1467438-18.0767365,18.1607666-18.0767365c10.0113983,0,18.1581573,8.1099701,18.1581573,18.0767365
	c0,2.9703217,2.4082947,5.3786316,5.3786316,5.3786316s5.3786316-2.4083099,5.3786316-5.3786316
	c0-14.0627899-10.1601257-25.76651-23.5367889-28.2916718v-5.3641968c0-2.9703369-2.4082947-5.3786316-5.3786316-5.3786316
	c-2.9703217,0-5.3786316,2.4082947-5.3786316,5.3786316v5.3641968
	c-13.3773193,2.5251617-23.5394135,14.2288818-23.5394135,28.2916718c0,15.8969116,12.9738617,28.8313599,28.918045,28.8313599
	h0.9559631c10.0113983,0,18.1581573,8.1099854,18.1581573,18.0767517c0,9.9667358-8.146759,18.0740967-18.1581573,18.0740967
	s-18.1581421-8.1073608-18.1581421-18.0740967c0-2.9703369-2.4083099-5.3786316-5.3786316-5.3786316
	c-2.9703369,0-5.3786316,2.4082947-5.3786316,5.3786316c0,13.721344,9.682785,25.1903381,22.5808105,28.0848389v5.5710144
	c0,2.9703369,2.4083099,5.3786316,5.3786316,5.3786316c2.9703369,0,5.3786316-2.4082947,5.3786316-5.3786316v-5.2706299
	c13.8369293-2.142395,24.4927521-13.9984436,24.4927521-28.3852234
	C280.3138428,261.8867798,267.3426208,248.952301,251.3984222,248.952301z"/>
<path class="st0" d="M250.9204407,165.047699c-50.1121674,0-90.8826447,40.7704773-90.8826447,90.8826447
	s40.7704773,90.8826447,90.8826447,90.8826447s90.8826599-40.7704773,90.8826599-90.8826447
	S301.0326233,165.047699,250.9204407,165.047699z M250.9204407,336.0557251
	c-44.1820221,0-80.1253815-35.9433594-80.1253815-80.1253815s35.9433594-80.1253815,80.1253815-80.1253815
	s80.1253967,35.9433594,80.1253967,80.1253815S295.102478,336.0557251,250.9204407,336.0557251z"/>
</svg>
