<?xml version="1.0" encoding="utf-8"?>
<!-- Generator: Adobe Illustrator 22.0.1, SVG Export Plug-In . SVG Version: 6.00 Build 0)  -->
<svg version="1.1" id="Layer_1" xmlns="http://www.w3.org/2000/svg" xmlns:xlink="http://www.w3.org/1999/xlink" x="0px" y="0px"
	 width="501px" height="501px" viewBox="0 0 501 501" style="enable-background:new 0 0 501 501;" xml:space="preserve">
<g>
	<path d="M470.7981567,186.7639465c0-13.2572327-3.0933533-25.2666473-9.6417236-34.4345245
		c-6.5483704-9.1677551-17.2290955-15.1512299-28.9248962-15.1512299h-66.1143494V76.5736008
		c0-24.3016777-23.3730774-44.0762405-51.6517944-44.0762405H184.3029785c-14.1392822,0-25.9373016,5.5439339-33.4013672,14.1181946
		c-7.464325,8.5742607-10.6748657,19.4842224-10.6748657,29.958046v60.6045914H79.622139
		c-23.391571,0-44.0762405,21.3070221-44.0762405,49.5857544v132.2285767c0,14.1395874,5.5382195,25.9525757,14.1181946,33.4013672
		c8.5799789,7.448822,19.4972916,10.6747437,29.958046,10.6747437h60.6046066v66.1142273
		c0,11.6956482,6.1556549,22.2041931,15.32341,28.7528381c9.1677399,6.5480957,21.0052338,9.8139343,34.2624664,9.8139343v0.7530212
		h22.0379791v-0.7530212h110.1904755c13.2570801,0,24.5486145-3.3374329,32.5405273-10.5025635
		c7.9920654-7.1656799,11.5355835-17.603302,11.5355835-28.064209V363.068634h66.1143494
		c10.4606323,0,20.898407-3.7156982,28.0640869-11.7077637c7.1655273-7.9920654,10.502533-19.1108398,10.502533-32.3683472
		V208.802063H471.5v-22.0381165H470.7981567z M448.7600403,318.9925232c0,9.6828308-2.3091431,14.9322205-4.8208618,17.7337036
		c-2.5117188,2.8009644-5.7822876,4.3042908-11.7076416,4.3042908H355.098175
		c-5.7694702,0.0005493-11.0185547,5.2496338-11.019104,11.0189819v77.1333618
		c0,5.9255066-1.5027771,9.1959229-4.3042908,11.7077637c-2.8013611,2.5118408-8.0505981,4.8207397-17.7337036,4.8207397
		H189.8126221c-9.6831055,0-17.1411743-2.5533447-21.5216827-5.6817017
		c-4.3805084-3.1288757-6.0259399-6.1559143-6.0259399-10.8468018v-77.1333618
		c-0.0006866-5.7693481-5.249649-11.0184326-11.0191345-11.0189819H79.622139
		c-5.9253464,0-11.6435089-1.9925232-15.4955978-5.3373108c-3.8519554-3.3442078-6.5425224-7.8999023-6.5425224-16.7006836
		V186.7639465c0-17.601944,12.6574821-27.5476227,22.0381203-27.5476227h71.6237259
		c5.7694855-0.0005493,11.0184479-5.249649,11.0191345-11.0191345V76.5736008
		c0-5.9124146,1.8067322-11.6377945,5.1651154-15.4956017c3.3582306-3.8578033,8.0719604-6.5426559,16.8728638-6.5426559
		h130.1624146c17.6018066,0,29.613678,13.5674477,29.613678,22.0382576v71.6235886
		c0.0005493,5.7694855,5.2496338,11.0185852,11.019104,11.0191345h77.1333618c4.6901855,0,7.8901367,1.6455688,11.0190125,6.0260773
		s5.509491,11.8385773,5.509491,21.5215454C448.2060242,230.3920746,448.7600403,274.7763672,448.7600403,318.9925232z"/>
	<path d="M326.2455444,207.8533325c-9.7141113-8.5075684-21.211792-13.963501-32.887207-15.1313477
		c-11.6755371-1.1677246-23.8664551,2.4772949-32.4241943,11.7344971l-7.4112549,8.0288086
		c-2.4353027-2.5152588-5.3649902-5.7429199-7.4111328-8.0288086c-7.3479004-8.2296143-17.8239746-12.0184326-28.1009521-12.043335
		c-1.4681396-0.003418-2.8699951,0.0031738-4.3232422,0.154541c-11.7319336,1.2211914-23.1739502,6.7788086-32.8873291,15.2856445
		c-11.2098389,9.8173828-16.4931641,22.7248535-16.2120361,35.0488281s5.6920166,23.8530273,14.050415,32.7329102
		l62.0690918,65.9290771c1.4460449,1.534668,4.5582275,4.7005615,5.8671875,6.0216064
		c3.6530762,3.6115723,10.243042,3.6115723,13.8959961,0c1.309082-1.3210449,4.4213867-4.4869385,5.8673096-6.0216064
		l62.0689697-65.9290771c8.3583984-8.8798828,13.7692871-20.4089355,14.0505371-32.7329102
		C342.7387085,230.578186,337.4555054,217.6707153,326.2455444,207.8533325z M314.0480347,262.0479126l-60.5251465,64.0761719
		l-60.5249023-64.0761719c-5.3937988-5.7302246-8.4927979-12.8693848-8.6464844-19.6088867
		c-0.1538086-6.739502,2.2265625-13.3295898,9.5727539-19.7633057c7.0085449-6.1379395,15.1435547-9.793335,21.9249268-10.4991455
		c6.7813721-0.7060547,11.6619873,0.911377,15.5944824,5.4039307c4.756958,5.4281006,9.8707275,10.7410889,14.8223877,16.0577393
		c3.6881104,3.989502,10.8256836,3.989502,14.5136719,0l14.6680908-15.7489014
		c4.1536865-4.4932861,9.15979-6.2330322,15.9031982-5.5584717c6.7435303,0.6745605,14.7628174,4.2075195,21.7705078,10.3448486
		c7.3463135,6.4337158,9.7265625,13.0238037,9.572876,19.7633057S319.4415894,256.317688,314.0480347,262.0479126z"/>
</g>
</svg>
