<?xml version="1.0" encoding="utf-8"?>
<!-- Generator: Adobe Illustrator 22.0.1, SVG Export Plug-In . SVG Version: 6.00 Build 0)  -->
<svg version="1.1" id="Layer_1" xmlns="http://www.w3.org/2000/svg" xmlns:xlink="http://www.w3.org/1999/xlink" x="0px" y="0px"
	 width="501px" height="501px" viewBox="0 0 501 501" style="enable-background:new 0 0 501 501;" xml:space="preserve">
<path d="M439.2119141,36.9824219c-25.2900391,0-89.9345703,4.8251953-143.8505859,49.5180664l-0.1064453,0.090332
	c-35.494812,30.4232788-53.6414795,66.8838501-62.8502808,94.2724609c-0.0256348-0.0267944-0.0464478-0.0484619-0.0730591-0.0761719
	c-4.3735352-4.5664062-17.6835938-18.4624023-46.6962891-28.3686523
	c-19.2597656-6.4194336-35.2236328-8.1206055-48.3828125-8.9428711c-14.2348633-0.7490234-34.2431641,0.050293-71.4306641,2.8569336
	c-3.4995117,0.2919922-6.8188477,0.4624023-9.7475586,0.6132812c-4.2397461,0.2177734-7.9008789,0.40625-10.8203125,0.8930664
	l-10.409668,1.7543945l3.9223633,9.8051758c1.3369141,3.3413086,2.715332,6.7871094,4.1494141,9.7651367
	c5.6640625,20.890625,13.8188477,37.6811523,21.0688477,51.3759766l0.1699219,0.3061523
	c0.5551758,0.9506836,1.1279297,1.9467773,1.7246094,2.984375c4.8183594,8.3789062,11.4174805,19.8540039,22.6464844,32.4033203
	c11.0366211,12.6132812,19.3642578,21.4023438,33.9111328,28.3115234c6.0869141,3.0332031,19.9541016,8.7617188,37.793457,8.7617188
	c5.230957,0,10.8046875-0.4921875,16.6225586-1.6904297c25.5888672-5.2685547,41.3398438-20.71875,47.1196289-27.3935547
	c1.8355713-1.8571167,6.3116455-6.6431274,10.8703003-13.3554688c0.161499,2.2364502,0.3359375,4.5050659,0.5144653,6.8115234
	l0.1640625,2.1289062l0.0268555,0.2861328c0.1958008,1.7587891,0.3774414,3.4638672,0.5644531,5.2177734
	c1.2026367,11.2744141,2.565918,24.0537109,8.7021484,63.9384766c3.2363281,22.0039062,5.4912109,37.1103516,7.0932617,47.5273438
	c1.2587891,9.6044922-0.0585938,29.5888672-1.2509766,34.3583984l-0.0361328,0.1503906
	c-3.2597656,14.1259766-8.7392578,27.484375-16.7529297,40.8408203c-2.4155273,4.0253906-1.1103516,9.2460938,2.9155273,11.6621094
	c1.3691406,0.8212891,2.8764648,1.2119141,4.3647461,1.2119141c2.8876953,0,5.703125-1.4716797,7.296875-4.1279297
	c8.9316406-14.8857422,15.0576172-29.8359375,18.7255859-45.6992188c1.7177734-7.0048828,3.1142578-29.1972656,1.578125-40.7226562
	l-0.0244141-0.1699219c-1.5976562-10.3808594-3.8505859-25.4755859-7.0986328-47.5605469
	c-6.0849609-39.5507812-7.4257812-52.1220703-8.609375-63.2128906c-0.1845703-1.7314453-0.3642578-3.4150391-0.5566406-5.1484375
	l-0.1533203-1.9921875c-0.0471802-0.6091919-0.0933838-1.2103882-0.1398926-1.8143921
	c18.4804688,18.1530762,41.5805664,20.0699463,58.6398926,21.4794312l1.3603516,0.1123047
	c3.6142578,0.2939453,7.1533203,0.4316406,10.6269531,0.4306641c46.5839844-0.0019531,80.2207031-24.8193359,89.9785156-32.9501953
	c29.3466797-24.9448242,39.4345703-55.4228516,42.75-65.4379883l0.3935547-1.2158203
	c5.1601562-18.4321289,5.9931641-47.1621094,5.9931641-108.7724609V36.9824219H439.2119141z M211.2773438,252.9130859
	c-4.4624023,5.2060547-17.0839844,17.7763672-37.8525391,22.0527344
	c-20.5463867,4.2285156-37.2412109-2.5537109-43.4658203-5.6669922l-0.1630859-0.0791016
	c-11.65625-5.5214844-18.5341797-12.8183594-28.5385742-24.2514648
	c-10.1083984-11.2973633-15.9482422-21.4526367-20.6411133-29.612793c-0.5830078-1.0141602-1.144043-1.9892578-1.6879883-2.9233398
	c-6.8764648-12.9995117-14.5917969-28.9140625-19.8046875-48.4614258l-0.0424805-0.1586914
	c2.5004883-0.1333008,5.2216797-0.2939453,8.0864258-0.5327148c36.3408203-2.7426758,55.7407227-3.534668,69.1079102-2.8320312
	c12.5849609,0.7866211,26.6235352,2.3125,43.925293,8.0791016c25.0351562,8.5483398,36.1889648,20.1933594,39.8540039,24.0200195
	c0.3569336,0.3720703,0.6542969,0.6816406,0.8945312,0.9213867c4.5942383,4.5947266,6.9819336,8.3662109,8.5092773,13.4448242
	c0.2938232,1.0018311,0.5029907,2.0089111,0.6721802,3.017334c0.0720825,0.5643921,0.1477661,1.1317749,0.2329102,1.7078857
	c0.5351562,5.2166138-0.4275513,10.4467163-2.1715698,15.3421021c-12.3134766-9.6740112-25.394043-16.6907349-39.7159424-21.321228
	c-16.6210938-5.71875-34.1958008-8.0092773-52.2358398-6.8056641c-4.684082,0.3120117-8.2280273,4.3623047-7.9155273,9.0463867
	s4.3642578,8.2412109,9.0463867,7.9155273c15.796875-1.050293,31.1538086,0.9467773,45.6445312,5.9433594l0.1616211,0.0537109
	c13.3122559,4.2943115,25.437561,11.015625,36.8878174,20.4530029c-4.1115723,5.880188-7.9558105,9.781311-8.3448486,10.1705322
	L211.2773438,252.9130859z M444.9091797,68.1987305c0,58.5766602-0.7685547,87.5766602-5.3115234,104.0019531l-0.2138672,0.644043
	c-2.9453125,8.8964844-11.90625,35.9692383-37.5576172,57.7734375c-6.5273438,5.4389648-41.4736328,32.3759766-88.265625,28.5839844
	l-1.3544922-0.1123047c-15.8361206-1.3083496-35.5429688-2.9371338-49.8880005-18.4702148
	c30.6296387-13.2202759,59.0991821-32.8117065,82.9163208-57.1958008
	c16.9082031-17.5126953,31.2851562-37.3920898,43.9511719-60.7753906c2.2363281-4.1274414,0.7021484-9.2861328-3.4248047-11.5224609
	c-4.1298828-2.2348633-9.2871094-0.7016602-11.5224609,3.4257812
	c-11.9228516,22.0092773-25.4101562,40.675293-41.2001953,57.0283203
	c-23.1022949,23.6526489-50.8978271,42.4967041-80.7583618,54.835022
	c-2.5822144-5.4221802-4.0892334-10.9266968-4.9316406-15.9844971c-0.1256104-1.3334351-0.3029785-2.6576538-0.5478516-3.9696655
	c-0.6743164-6.2446289-0.4052124-11.4723511-0.1127319-14.4790039c7.8212891-25.7055664,24.4833984-62.3364258,59.578125-92.4389648
	c49.6455078-41.1201172,109.5078125-45.5605469,132.9462891-45.5605469h5.6972656V68.1987305z"/>
</svg>
