<?xml version="1.0" encoding="utf-8"?>
<!-- Generator: Adobe Illustrator 22.0.1, SVG Export Plug-In . SVG Version: 6.00 Build 0)  -->
<svg version="1.1" id="Layer_1" xmlns="http://www.w3.org/2000/svg" xmlns:xlink="http://www.w3.org/1999/xlink" x="0px" y="0px"
	 width="501px" height="501px" viewBox="0 0 501 501" style="enable-background:new 0 0 501 501;" xml:space="preserve">
<style type="text/css">
	.st0{stroke:#000000;stroke-width:3;stroke-miterlimit:10;}
</style>
<path class="st0" d="M232.6008606,447.2605591c64.003418,0,122.6732788-32.0017395,158.0084839-84.6711731
	c8.6671448,101.3387451,18.0009766,101.3387451,25.3347168,101.3387451c8.0003967,0,18.000946,0,26.6680908-120.6731262
	c4.0002136-56.6697388,6.0003357-114.006134,6.6670227-132.6738281l0,0l0,0c0-1.3334045,0-2.6668091,0-3.3335114
	c0-24.0012817,0-56.6697083-33.3351135-56.6697083s-33.335144,32.6684265-33.335144,56.6697083c0,0.6667023,0,2.0001068,0,3.3335114
	l0,0l0,0c0,2.0001068,0,4.0002136,0,6.0003357c-4.6669006-0.666687-10.0005188-0.666687-14.6674194-1.3334045
	c-22.6679077-1.3334045-48.002594-3.3335114-67.3369446-22.6678925
	c-19.3343811-19.3343811-21.3345032-44.6690826-23.3345947-67.3369598
	c-2.6668091-28.6682129-4.6669312-58.0031128-44.6690674-58.0031128c-104.6723251,0-190.0102386,85.3379211-190.0102386,190.0102234
	S127.928566,447.2605591,232.6008606,447.2605591z M415.9440613,446.5938721
	c-9.3338623-26.6680908-16.667572-138.0074158-19.3343811-202.6775665h38.0020142
	C432.6116028,308.5864563,425.2778931,419.9257812,415.9440613,446.5938721z M435.2784424,230.5822601h-39.3354797
	c0-4.6669312,0-9.333847,0-13.3340454h40.0021667C435.9451294,221.2484131,435.9451294,225.915329,435.2784424,230.5822601z
	 M415.9440613,163.9120026c15.3341675,0,20.0010681,8.6671295,20.0010681,40.0021515h-40.0021667
	C395.9429626,172.5791321,400.6098633,163.9120026,415.9440613,163.9120026z M232.6008606,80.5741959
	c26.6680908,0,28.6682129,14.6674576,31.335022,45.335762c2.0000916,24.0012817,4.6669312,53.3361969,27.3348083,76.0040741
	s52.0027771,25.3346863,75.3373718,26.6681061c6.0003357,0.666687,11.3339233,0.666687,16.0008545,1.3334045
	c0.666687,26.0014038,2.6668396,68.0036469,6.0003357,109.3391876
	c-30.6683044,58.0031128-90.6715393,94.0050354-156.0083923,94.0050354
	c-97.338562,0.666748-176.6761627-78.6708374-176.6761627-176.0093994S135.2622986,80.5741959,232.6008606,80.5741959z"/>
<path class="st0" d="M175.9311523,190.5801086c18.6676636,0,33.3351288-14.6674652,33.3351288-33.3351288
	s-14.6674652-33.3351212-33.3351288-33.3351212s-33.3351288,14.6674576-33.3351288,33.3351212
	S157.2634888,190.5801086,175.9311523,190.5801086z M175.9311523,137.2439117
	c11.3339386,0,20.0010681,8.6671295,20.0010681,20.0010681c0,11.3339539-8.6671295,20.0010834-20.0010681,20.0010834
	c-11.3339539,0-20.0010834-8.6671295-20.0010834-20.0010834
	C155.930069,145.9110413,164.5971985,137.2439117,175.9311523,137.2439117z"/>
<path class="st0" d="M155.930069,230.5822601c0-18.6676636-14.66745-33.3351288-33.3351212-33.3351288
	s-33.3351212,14.6674652-33.3351212,33.3351288s14.6674576,33.3351288,33.3351212,33.3351288
	S155.930069,249.2499237,155.930069,230.5822601z M102.5938721,230.5822601
	c0-11.3339539,8.6671295-20.0010834,20.0010757-20.0010834s20.0010757,8.6671295,20.0010757,20.0010834
	c0,11.3339386-8.6671295,20.0010681-20.0010757,20.0010681S102.5938721,241.9161987,102.5938721,230.5822601z"/>
<path class="st0" d="M142.5960236,290.5854797c-18.6676636,0-33.3351212,14.66745-33.3351212,33.3351135
	c0,18.6676941,14.6674576,33.335144,33.3351212,33.335144s33.3351288-14.66745,33.3351288-33.335144
	C175.9311523,305.2529297,161.2636871,290.5854797,142.5960236,290.5854797z M142.5960236,343.9216919
	c-11.3339539,0-20.0010757-8.6671448-20.0010757-20.0010986c0-11.3339233,8.6671219-20.0010681,20.0010757-20.0010681
	s20.0010834,8.6671448,20.0010834,20.0010681C162.5971069,335.2545471,153.9299774,343.9216919,142.5960236,343.9216919z"/>
<path class="st0" d="M182.598175,383.9238281c0,18.6676941,14.6674652,33.335144,33.3351288,33.335144
	s33.3351135-14.66745,33.3351135-33.335144s-14.66745-33.3351135-33.3351135-33.3351135
	S182.598175,365.256134,182.598175,383.9238281z M215.9333038,363.92276c11.3339386,0,20.0010681,8.6671448,20.0010681,20.0010681
	s-8.6671295,20.0010681-20.0010681,20.0010681c-11.3339539,0-20.0010834-8.6671448-20.0010834-20.0010681
	S204.59935,363.92276,215.9333038,363.92276z"/>
<path class="st0" d="M399.2764893,72.573761c-7.3337097,6.6670227-16.667572,15.3341522-16.667572,31.335022
	c0,18.6676636,14.66745,33.3351288,33.335144,33.3351288c18.6676636,0,33.3351135-14.6674652,33.3351135-33.3351288
	c0-15.3341522,0-43.3356628-29.3349304-65.3368378c-2.0001221-2.000103-5.3336182-2.000103-7.3337097,0
	c-2.000061,2.0000992-3.3334961,4.6669197-2.6668091,7.3337288C412.6105347,59.9064178,407.276886,65.2400436,399.2764893,72.573761
	z M407.943634,82.574295c6.0003357-5.3336105,12.6673584-12.0006332,15.334198-22.6678772
	c12.6672974,15.3341599,12.6672974,32.6684189,12.6672974,44.0023651s-8.6671448,20.0010757-20.0010681,20.0010757
	s-20.0010986-8.6671295-20.0010986-20.0010757C395.9429626,93.241539,401.2766113,88.5746307,407.943634,82.574295z"/>
</svg>
