<?xml version="1.0" encoding="utf-8"?>
<!-- Generator: Adobe Illustrator 22.0.1, SVG Export Plug-In . SVG Version: 6.00 Build 0)  -->
<svg version="1.1" id="Layer_1" xmlns="http://www.w3.org/2000/svg" xmlns:xlink="http://www.w3.org/1999/xlink" x="0px" y="0px"
	 width="501px" height="501px" viewBox="0 0 501 501" style="enable-background:new 0 0 501 501;" xml:space="preserve">
<style type="text/css">
	.st0{stroke:#000000;stroke-width:5;stroke-miterlimit:10;}
</style>
<path class="st0" d="M15.5467739,439.5892334H484.521759c3.3249207,0,6.0125122-2.6875916,6.0125122-6.0125122
	s-2.6875916-6.0124817-6.0125122-6.0124817h-32.6057434v-41.5163269h9.066864c3.3249207,0,6.0124817-2.687561,6.0124817-6.0124817
	v-31.4393616c0-3.3249207-2.687561-6.0125122-6.0124817-6.0125122h-20.0817261v-98.0939484
	c0-3.3249207-2.6875916-6.0124969-6.0125122-6.0124969s-6.0124817,2.6875763-6.0124817,6.0124969v5.4713745h-229.647522v-5.4713745
	c0-3.3249207-2.6875763-6.0124969-6.0124969-6.0124969s-6.0124969,2.6875763-6.0124969,6.0124969v98.0939178h-15.2657471
	c-3.3249207,0-6.0124969,2.6875916-6.0124969,6.0125122v31.4393616c0,3.3248901,2.6875763,6.0125122,6.0124969,6.0125122h7.6899872
	v41.5163269h-56.7579956V242.0124664c48.3404999-3.1084595,86.7423553-43.0795746,86.7423553-91.89505
	c0-50.841713-41.6125336-92.2016907-92.7668762-92.2016907c-51.1483307,0-92.760849,41.359993-92.760849,92.2016907
	c0,48.8214874,38.4078484,88.7926025,86.7603683,91.89505v185.5517731h-95.298111
	c-3.3249102,0-6.0125008,2.687561-6.0125008,6.0124817S12.221858,439.5892334,15.5467739,439.5892334z M36.1095238,150.1174164
	c0-44.2099228,36.2132912-80.1766891,80.7358398-80.1766891s80.7418671,35.9667664,80.7418671,80.1766891
	c0,42.1897278-33.008606,76.7856293-74.7173309,79.8700409v-29.6175537l28.6615906-28.7096863
	c2.3448639-2.3508911,2.3448639-6.1508026-0.0120239-8.5016785c-2.3388672-2.3388672-6.1507721-2.3508911-8.5016785,0.0120239
	l-20.1478882,20.1839752v-34.3253632c0-3.3249054-2.6875916-6.0124969-6.0125046-6.0124969
	c-3.3249054,0-6.0124969,2.6875916-6.0124969,6.0124969v34.3253632l-20.1478882-20.1839752
	c-2.3508911-2.3628998-6.1628113-2.3508911-8.5016708-0.0120239c-2.3569031,2.3508911-2.3569031,6.1507874-0.0120316,8.5016785
	l28.6615906,28.7096863v29.6175537C69.1241531,226.9210968,36.1095238,192.3131409,36.1095238,150.1174164z
	 M199.2286377,291.8079834h229.6474304v20.9475708H199.2286377V291.8079834z M428.8760986,261.9859924v17.7969971H199.2286377
	v-17.7969971H428.8760986z M199.2286377,324.7805176h229.6474304v17.803009H199.2286377V324.7805176z M177.9504242,354.608551
	h277.0199585v19.4143677H177.9504242V354.608551z M191.6529083,386.0479126h248.2380524v41.5163269H191.6529083V386.0479126z"/>
</svg>
