<?xml version="1.0" encoding="utf-8"?>
<!-- Generator: Adobe Illustrator 22.0.1, SVG Export Plug-In . SVG Version: 6.00 Build 0)  -->
<svg version="1.1" id="Layer_1" xmlns="http://www.w3.org/2000/svg" xmlns:xlink="http://www.w3.org/1999/xlink" x="0px" y="0px"
	 width="501px" height="501px" viewBox="0 0 501 501" style="enable-background:new 0 0 501 501;" xml:space="preserve">
<style type="text/css">
	.st0{stroke:#000000;stroke-width:3;stroke-miterlimit:10;}
</style>
<path class="st0" d="M105.4693451,330.5137939c27.3530731,0,49.6067352-22.2536621,49.6067352-49.6067505
	c0-27.348053-22.2536621-49.6017456-49.6067429-49.6017456s-49.606739,22.2536774-49.606739,49.6017456
	C55.8626137,308.2601318,78.1162872,330.5137939,105.4693451,330.5137939z M105.4693451,246.269165
	c19.1002502,0,34.6378937,15.5376587,34.6378937,34.6329041c0,19.1002502-15.5376511,34.6379089-34.6378937,34.6379089
	s-34.6378937-15.5376587-34.6378937-34.6379089C70.8314514,261.8068237,86.3691101,246.269165,105.4693451,246.269165z"/>
<path class="st0" d="M105.4693451,344.1254578c-43.6092186,0-79.0903625,35.4811401-79.0903625,79.0903931
	c0,13.4170837,10.9172745,24.3343201,24.3343468,24.3343201h109.5170288c13.4170685,0,24.3293457-10.9172668,24.3293457-24.3343201
	C184.5597076,379.6065979,149.0785675,344.1254578,105.4693451,344.1254578z M160.2303619,432.5813599H50.7133293
	c-5.1642494,0-9.3655052-4.2012939-9.3655052-9.365509c0-35.3564148,28.7651215-64.121521,64.121521-64.121521
	s64.121521,28.7651062,64.121521,64.121521C169.5908661,428.3800659,165.3896179,432.5813599,160.2303619,432.5813599z"/>
<path class="st0" d="M250.9115906,237.9714355c27.3530579,0,49.6067505-22.2536774,49.6067505-49.6017456
	c0-27.3530579-22.2536621-49.6067352-49.6067505-49.6067352s-49.6067352,22.2536621-49.6067352,49.6067352
	C201.3048553,215.7177582,223.558548,237.9714355,250.9115906,237.9714355z M250.9115906,153.7268066
	c19.1002502,0,34.6379089,15.5376434,34.6379089,34.6378937c0,19.0952606-15.5376587,34.6329193-34.6379089,34.6329193
	s-34.6378937-15.5376434-34.6378937-34.6329193C216.2736969,169.2644501,231.8113556,153.7268066,250.9115906,153.7268066z"/>
<path class="st0" d="M330.0019531,330.6784363c0-43.6091919-35.4811401-79.0953522-79.0903625-79.0953522
	s-79.0903473,35.4811554-79.0903473,79.0953522c0,13.4170837,10.9172668,24.3343506,24.3293457,24.3343506h109.5170135
	C319.0896912,355.0128174,330.0019531,344.09552,330.0019531,330.6784363z M305.6726074,340.0439758H196.150589
	c-5.1642456,0-9.3605042-4.2012634-9.3605042-9.3654785c0-35.3564148,28.7651215-64.1265259,64.1215057-64.1265259
	s64.121521,28.7701111,64.121521,64.1265259C315.0331421,335.8427124,310.8318481,340.0439758,305.6726074,340.0439758z"/>
<path class="st0" d="M396.3538513,330.5137939c27.3530884,0,49.6067505-22.2536621,49.6067505-49.6067505
	c0-27.348053-22.2536621-49.6017456-49.6067505-49.6017456c-27.3530579,0-49.6067505,22.2536774-49.6067505,49.6017456
	C346.7471008,308.2601318,369.0007935,330.5137939,396.3538513,330.5137939z M396.3538513,246.269165
	c19.1002502,0,34.6379089,15.5376587,34.6379089,34.6329041c0,19.1002502-15.5376587,34.6379089-34.6379089,34.6379089
	s-34.6379089-15.5376587-34.6379089-34.6379089C361.7159424,261.8068237,377.2536011,246.269165,396.3538513,246.269165z"/>
<path class="st0" d="M396.3538513,344.1254578c-43.6092224,0-79.0903625,35.4761658-79.0903625,79.0903625
	c0,13.4170837,10.9172974,24.3343201,24.3293762,24.3343201h109.5169983c13.4170837,0,24.3343506-10.9172974,24.3343506-24.3343201
	C475.4442139,379.6065979,439.9630737,344.1254578,396.3538513,344.1254578z M451.1098633,432.5813599H341.592865
	c-5.1642761,0-9.3605347-4.2012939-9.3605347-9.365509c0-35.3564148,28.7651367-64.121521,64.121521-64.121521
	s64.121521,28.7651062,64.121521,64.121521C460.4753723,428.3800659,456.2741089,432.5813599,451.1098633,432.5813599z"/>
<path class="st0" d="M250.9115906,111.160408c4.1363831,0,7.484436-3.3530273,7.484436-7.4844208V64.9017029
	c0-4.1314011-3.348053-7.4844246-7.484436-7.4844246s-7.4844208,3.3530235-7.4844208,7.4844246v38.7742844
	C243.4271698,107.8073807,246.7752075,111.160408,250.9115906,111.160408z"/>
<path class="st0" d="M366.3163452,158.960907c1.9160461,0,3.8320312-0.7284851,5.2939758-2.1904297l27.4179382-27.417923
	c2.9239197-2.9239197,2.9239197-7.6590652,0-10.5829773c-2.9238892-2.9239197-7.6590576-2.9239197-10.5829773,0
	l-27.4179382,27.4179382c-2.9239197,2.9239044-2.9239197,7.6590424,0,10.582962
	C362.4843445,158.2274323,364.4003601,158.960907,366.3163452,158.960907z"/>
<path class="st0" d="M130.2178345,156.7654724c1.4619598,1.4619598,3.3779755,2.1904449,5.2939911,2.1904449
	s3.832016-0.7284851,5.2939758-2.1904449c2.9239197-2.9239197,2.9239197-7.6590576,0-10.5829773l-27.4179153-27.4179153
	c-2.9239197-2.923912-7.6590576-2.923912-10.5829773,0c-2.923912,2.9239197-2.923912,7.6590576,0,10.5829697
	L130.2178345,156.7654724z"/>
<path class="st0" d="M181.5410004,118.9591751c1.1925049,2.8790054,3.9817047,4.6203842,6.9156189,4.6203842
	c0.9530182,0,1.9259949-0.1796265,2.8640442-0.5688171c3.8170471-1.5817032,5.6282654-5.9576035,4.0515594-9.7796478
	l-14.8391113-35.8254318c-1.5817108-3.8220367-5.9625854-5.6382599-9.7796326-4.0515671
	c-3.8170471,1.5817108-5.6282806,5.9576035-4.0515594,9.7796478L181.5410004,118.9591751z"/>
<path class="st0" d="M310.5025635,123.0107422c0.9380493,0.389183,1.9060364,0.5688171,2.8640442,0.5688171
	c2.9338989,0,5.7230835-1.7413788,6.9156189-4.6203842l14.8391113-35.8254318
	c1.5817261-3.8220444-0.2295227-8.1979294-4.0515442-9.7796402c-3.8270264-1.5867004-8.197937,0.2295227-9.7796326,4.0515671
	l-14.8391113,35.8254242C304.8692627,117.0481567,306.6855164,121.4240417,310.5025635,123.0107422z"/>
</svg>
